/* $Header: /usr/cvsroot/tcllib84/hub.xbm,v 1.1.1.1 2002/10/06 17:21:35 hume Exp $ */
#define hub2.xbm_width 68
#define hub2.xbm_height 65
static char hub2.xbm_bits[] = {
   0x00, 0xfe, 0x00, 0x00, 0x00, 0x00, 0x00, 0x00, 0x00, 0x80, 0x01, 0x03,
   0x00, 0x00, 0x00, 0x00, 0x00, 0x00, 0x60, 0x00, 0x0c, 0x00, 0x00, 0x00,
   0x00, 0x00, 0x00, 0x10, 0x00, 0x10, 0x00, 0x00, 0x00, 0x00, 0x00, 0x00,
   0x08, 0x00, 0x20, 0x00, 0x00, 0x00, 0x00, 0x00, 0x00, 0x08, 0x7c, 0x20,
   0x00, 0x7c, 0x00, 0x00, 0x00, 0x00, 0x04, 0x83, 0x41, 0x00, 0xef, 0x01,
   0x00, 0x00, 0x00, 0x84, 0x00, 0x42, 0x80, 0x6d, 0x03, 0x00, 0x00, 0x00,
   0x82, 0x00, 0x82, 0xc0, 0xff, 0x07, 0x00, 0x00, 0x00, 0x42, 0x38, 0x84,
   0x40, 0x7f, 0x05, 0x00, 0x00, 0x00, 0x42, 0x44, 0x84, 0xe0, 0xbf, 0x0f,
   0x00, 0x00, 0x00, 0x42, 0x54, 0x84, 0xe0, 0xdf, 0x0f, 0x00, 0x00, 0x00,
   0x42, 0x54, 0x84, 0x20, 0xef, 0x09, 0x00, 0x00, 0x00, 0x42, 0x38, 0x84,
   0xe0, 0xdf, 0x0f, 0x00, 0x00, 0x00, 0x82, 0x10, 0x82, 0xe0, 0xbf, 0x0f,
   0x00, 0x00, 0x00, 0x84, 0x10, 0x42, 0x40, 0xff, 0x05, 0x00, 0x00, 0x00,
   0x04, 0x93, 0x41, 0xc0, 0xff, 0x07, 0x00, 0x00, 0x00, 0x08, 0x7c, 0x20,
   0x80, 0x6d, 0x03, 0x00, 0x00, 0x00, 0x08, 0x38, 0x20, 0x00, 0xef, 0x01,
   0x00, 0x00, 0x00, 0x10, 0x28, 0x10, 0x00, 0x7c, 0x00, 0x00, 0x00, 0x00,
   0x60, 0x28, 0x0c, 0x00, 0x00, 0x00, 0x00, 0x00, 0x00, 0x80, 0x29, 0x03,
   0x00, 0x00, 0x00, 0x00, 0x00, 0x00, 0x00, 0xfe, 0x00, 0x00, 0x00, 0x00,
   0x00, 0x00, 0x00, 0x00, 0x58, 0x00, 0x00, 0x00, 0x00, 0x00, 0x00, 0x00,
   0x00, 0x6c, 0x80, 0xff, 0xff, 0x0f, 0x00, 0x00, 0x00, 0x00, 0x6c, 0x80,
   0xff, 0xff, 0x0f, 0x00, 0x00, 0x00, 0x00, 0x4c, 0x80, 0x81, 0x30, 0x0e,
   0x00, 0x00, 0x00, 0x00, 0x6c, 0x80, 0xff, 0xff, 0x0f, 0x00, 0x00, 0x00,
   0x00, 0xb4, 0x80, 0xe1, 0x38, 0x0e, 0x00, 0x00, 0x00, 0x00, 0xb4, 0x80,
   0xff, 0xff, 0x0f, 0x00, 0x00, 0x00, 0x00, 0xd4, 0x80, 0xf1, 0x3c, 0x0c,
   0x00, 0x00, 0x00, 0x00, 0xcc, 0x80, 0xff, 0xff, 0x0f, 0x00, 0x00, 0x00,
   0x00, 0x8c, 0x80, 0xc1, 0x3c, 0x0e, 0x00, 0x00, 0x00, 0x00, 0x1a, 0x81,
   0xff, 0xff, 0x0f, 0x00, 0x00, 0x00, 0x00, 0x22, 0x81, 0xf1, 0x38, 0x0f,
   0x00, 0x00, 0x00, 0x00, 0xc2, 0x81, 0xff, 0xff, 0x0f, 0x00, 0x00, 0x00,
   0x00, 0x06, 0x81, 0xe1, 0x3c, 0x0c, 0x00, 0x00, 0x00, 0x00, 0x8a, 0x81,
   0xff, 0xff, 0x0f, 0x00, 0x00, 0x00, 0x00, 0x72, 0x82, 0xe1, 0x3c, 0x0e,
   0x00, 0x00, 0x00, 0x00, 0x52, 0x82, 0xff, 0xff, 0x0f, 0x00, 0x00, 0x00,
   0x00, 0x8a, 0x82, 0xf1, 0x38, 0x0c, 0x00, 0x00, 0x00, 0x00, 0x07, 0x83,
   0xff, 0xff, 0x0f, 0x00, 0x00, 0x00, 0x00, 0x8d, 0x82, 0xff, 0xff, 0x0f,
   0x00, 0x00, 0x00, 0x00, 0x71, 0x82, 0xff, 0xff, 0x0f, 0x00, 0x00, 0x00,
   0x00, 0x71, 0x84, 0xff, 0xff, 0x0f, 0x00, 0x00, 0x00, 0x00, 0x89, 0x05,
   0x00, 0x00, 0x00, 0x00, 0x00, 0x00, 0x00, 0x07, 0x06, 0x00, 0x00, 0x00,
   0x00, 0x00, 0x00, 0x00, 0x01, 0x04, 0x00, 0x00, 0x00, 0x00, 0x00, 0x00,
   0x80, 0x00, 0x04, 0x00, 0x00, 0x00, 0x00, 0x00, 0x00, 0x80, 0x00, 0x08,
   0x00, 0x00, 0x00, 0x00, 0x00, 0x00, 0x80, 0x00, 0x08, 0x00, 0x00, 0x00,
   0x00, 0x00, 0x00, 0x80, 0x00, 0x08, 0x00, 0x00, 0x00, 0x00, 0x00, 0x00,
   0x00, 0x00, 0x00, 0x00, 0x00, 0x00, 0x00, 0x00, 0x00, 0x00, 0x00, 0x00,
   0x00, 0x00, 0x00, 0x00, 0x00, 0x00, 0x00, 0x00, 0x00, 0x00, 0x00, 0x00,
   0x00, 0x00, 0x00, 0x00, 0x00, 0x00, 0x00, 0x00, 0x00, 0x00, 0x00, 0x00,
   0x00, 0x00, 0x00, 0x00, 0x00, 0x00, 0x00, 0x00, 0x00, 0x00, 0x00, 0x00,
   0x00, 0x00, 0x00, 0x00, 0x00, 0x00, 0x00, 0x00, 0x00, 0x00, 0x00, 0x00,
   0x00, 0x00, 0x00, 0x00, 0x00, 0x00, 0x00, 0x00, 0x00, 0x00, 0x00, 0x00,
   0x00, 0x00, 0x00, 0x00, 0x00, 0x00, 0x00, 0x00, 0x00, 0x00, 0x00, 0x00,
   0x00, 0x00, 0x00, 0x00, 0x00, 0x00, 0x00, 0x00, 0x00, 0x00, 0x00, 0x00,
   0x00, 0x00, 0x00, 0x00, 0x00, 0x00, 0x00, 0x00, 0x00, 0x00, 0x00, 0x00,
   0x00, 0x00, 0x00, 0x00, 0x00, 0x00, 0x00, 0x00, 0x00};
